<?xml version="1.0" encoding="UTF-8" standalone="no"?>
<!-- Created with Inkscape (http://www.inkscape.org/) -->

<svg
   width="256mm"
   height="256mm"
   viewBox="0 0 256 256"
   version="1.1"
   id="svg1"
   xml:space="preserve"
   inkscape:version="1.4 (e7c3feb1, 2024-10-09)"
   sodipodi:docname="LogoM-light.svg"
   inkscape:export-filename="LogoM-light.png"
   inkscape:export-xdpi="96"
   inkscape:export-ydpi="96"
   xmlns:inkscape="http://www.inkscape.org/namespaces/inkscape"
   xmlns:sodipodi="http://sodipodi.sourceforge.net/DTD/sodipodi-0.dtd"
   xmlns="http://www.w3.org/2000/svg"
   xmlns:svg="http://www.w3.org/2000/svg"><sodipodi:namedview
     id="namedview1"
     pagecolor="#ffffff"
     bordercolor="#000000"
     borderopacity="0.25"
     inkscape:showpageshadow="2"
     inkscape:pageopacity="0.0"
     inkscape:pagecheckerboard="0"
     inkscape:deskcolor="#d1d1d1"
     inkscape:document-units="mm"
     inkscape:zoom="0.87849932"
     inkscape:cx="483.21039"
     inkscape:cy="483.77954"
     inkscape:window-width="1920"
     inkscape:window-height="1027"
     inkscape:window-x="0"
     inkscape:window-y="25"
     inkscape:window-maximized="1"
     inkscape:current-layer="g2"
     showgrid="false"><inkscape:page
       x="0"
       y="0"
       width="256"
       height="256"
       id="page2"
       margin="0"
       bleed="0" /></sodipodi:namedview><defs
     id="defs1"><linearGradient
       id="swatch93"
       inkscape:swatch="solid"><stop
         style="stop-color:#c86035;stop-opacity:0.41504177;"
         offset="0"
         id="stop94" /></linearGradient></defs><g
     inkscape:label="Ebene 1"
     inkscape:groupmode="layer"
     id="layer1"><g
       id="g2"
       transform="translate(-7.4640846e-5,13.286284)"><g
         id="g1"
         transform="matrix(1.2790669,0,0,1.2790669,-22.512094,-13.765572)"><path
           d="m 143.05289,48.801174 c -2.95218,0.0997 -4.16383,5.382818 -12.05334,29.228789 -12.15912,36.750917 -13.86374,36.726457 -24.36597,-0.352021 -8.199022,-28.946286 -8.198653,-28.946386 -19.085632,-25.483433 -5.987821,1.904601 -15.01107,4.095096 -20.051646,4.866917 -8.802993,1.347863 -9.10341,1.695549 -7.620337,8.803292 2.873868,13.773178 8.44581,61.956162 8.44581,73.036492 0,11.99465 1.109097,14.18869 7.176893,14.18869 3.092091,0 5.039862,-4.72882 8.571357,-20.82253 5.750956,-26.20735 8.657775,-27.12497 20.851195,-6.58338 11.95341,20.13738 11.25031,20.24962 28.74986,-4.5913 12.59737,-17.88224 14.25415,-17.14468 19.68053,8.76509 7.60496,36.31177 12.75726,32.32214 17.69119,-13.70159 2.10743,-19.658712 4.60906,-41.293202 5.56003,-48.077004 1.7291,-12.334171 1.72963,-12.334118 -9.78842,-13.877602 -6.33492,-0.849262 -14.64134,-2.542109 -18.45796,-3.761731 -2.10564,-0.672862 -3.54138,-1.404603 -4.68683,-1.59365 -0.21465,-0.03547 -0.41992,-0.05167 -0.61673,-0.04502 z"
           style="fill:#ffffff;fill-opacity:0.997934;stroke:#3e0000;stroke-width:9.00617;stroke-opacity:0"
           id="path12" /><path
           d="m 140.86982,41.732069 c -4.42414,0.229841 -6.62116,6.926445 -13.7589,29.149652 -4.63032,14.416411 -8.97749,24.603086 -9.66015,22.637236 -2.09402,-6.027717 -10.55551,-36.541255 -12.05884,-43.487067 -1.7324,-8.004293 -3.43464,-8.04309 -31.113042,-0.698588 -17.630859,4.678427 -21.356602,6.465241 -20.938533,10.044922 0.27969,2.394806 2.098404,15.077802 4.040075,28.183631 1.941673,13.105835 4.206152,32.943455 5.032022,44.083325 0.825948,11.13998 1.948405,21.66011 2.494161,23.37812 4.012695,12.62076 18.9327,1.52219 23.668739,-17.60659 4.765691,-19.24863 4.766484,-19.24802 13.626558,-5.36084 12.03914,18.87013 16.83356,18.76196 31.29589,-0.69995 12.12543,-16.31697 10.36882,-17.48031 16.62558,11.0123 7.98969,36.38401 21.5776,22.59883 26.66229,-27.04979 2.06052,-20.119477 4.79266,-42.099114 6.07171,-48.843812 2.80666,-14.799262 -0.20859,-18.230129 -16.02113,-18.230129 -5.60263,0 -13.98673,-1.811535 -18.63128,-4.026429 -2.69591,-1.285551 -4.72833,-2.237297 -6.41825,-2.447785 -0.31687,-0.03947 -0.62195,-0.05352 -0.9169,-0.03821 z m 2.18307,7.069105 c 0.1967,-0.0066 0.40197,0.0095 0.61673,0.04502 1.14545,0.189047 2.58119,0.920788 4.68683,1.59365 3.81662,1.219622 12.12304,2.912469 18.45796,3.761731 11.51805,1.543484 11.51752,1.543433 9.78842,13.877603 -0.95097,6.783801 -3.4526,28.418285 -5.56003,48.077002 -4.93393,46.02373 -10.08623,50.01336 -17.69119,13.70159 -5.42638,-25.90978 -7.08316,-26.64733 -19.68053,-8.76509 -17.49955,24.84091 -16.79645,24.72868 -28.74986,4.5913 -12.19342,-20.54159 -15.100239,-19.62397 -20.851195,6.58337 -3.531495,16.09371 -5.479266,20.82254 -8.571357,20.82254 -6.067796,0 -7.176893,-2.19404 -7.176893,-14.18869 0,-11.08033 -5.571942,-59.263313 -8.44581,-73.036491 -1.483073,-7.107743 -1.182656,-7.455429 7.620337,-8.803291 5.040576,-0.771822 14.063825,-2.962317 20.051646,-4.866918 10.886979,-3.462953 10.88661,-3.462853 19.085632,25.483433 10.50223,37.078477 12.20685,37.102937 24.36597,0.352021 7.88951,-23.845971 9.10116,-29.129096 12.05334,-29.228789 z"
           style="fill:#000000;stroke:#3e0000;stroke-width:9.00617;stroke-opacity:0"
           id="path11" /><path
           d="m 130.4865,19.008877 c -4.81783,-0.01954 -9.69878,-0.01373 -14.5748,0.01769 -39.008271,0.251438 -77.684754,2.12409 -80.950182,5.389493 -6.521564,6.521642 -7.468307,140.43773 -1.057452,149.59049 4.938685,7.05089 159.555534,8.49158 166.495774,1.55135 6.92374,-6.92374 5.49323,-147.264996 -1.55136,-152.199272 -4.01604,-2.812939 -34.63707,-4.21227 -68.36198,-4.349799 z m 10.38332,22.723192 c 0.29495,-0.01532 0.60003,-0.0013 0.9169,0.03821 1.68992,0.210488 3.72234,1.162234 6.41825,2.447785 4.64455,2.214894 13.02865,4.026429 18.63128,4.026429 15.81254,0 18.82779,3.430867 16.02113,18.230129 -1.27905,6.744698 -4.01119,28.724341 -6.07171,48.843818 -5.08469,49.64861 -18.6726,63.43379 -26.66229,27.0498 -6.25676,-28.49262 -4.50015,-27.32928 -16.62558,-11.01231 -14.46233,19.46191 -19.25675,19.57007 -31.29589,0.69996 -8.860074,-13.88719 -8.860867,-13.8878 -13.626558,5.36083 C 83.839313,156.5455 68.919308,167.64406 64.906613,155.0233 64.360857,153.30529 63.2384,142.78516 62.412452,131.64518 61.586582,120.50531 59.322103,100.6677 57.38043,87.561867 55.438759,74.456032 53.620045,61.773036 53.340355,59.37823 c -0.418069,-3.579681 3.307674,-5.366495 20.938533,-10.044923 27.678402,-7.344501 29.380642,-7.305704 31.113042,0.698588 1.50333,6.945813 9.96482,37.459357 12.05884,43.487073 0.68266,1.965851 5.02983,-8.220824 9.66015,-22.637242 7.13774,-22.223206 9.33476,-28.919814 13.7589,-29.149651 z"
           style="fill:#000000;fill-opacity:0.99376;stroke:#3e0000;stroke-width:9.00617;stroke-opacity:0"
           id="path10" /><path
           d="m 117.74683,14.028715 c -41.294422,0.09901 -82.65554,2.140635 -86.802206,6.036231 -5.515042,5.181041 -5.515016,5.181197 -5.515016,78.791649 0,76.598075 0.564397,81.279495 10.282345,85.194925 6.810574,2.74404 53.735712,3.32624 96.138997,2.42594 35.42663,-0.75215 67.69688,-2.5391 70.78107,-4.96514 8.71698,-6.85676 10.08586,-153.289377 1.51318,-161.862159 -3.87635,-3.876428 -45.10398,-5.720458 -86.39837,-5.621446 z m 12.73967,4.980162 c 33.72491,0.137535 64.34594,1.53686 68.36198,4.3498 7.04459,4.934276 8.4751,145.275533 1.55136,152.199273 -6.94024,6.94024 -161.557089,5.49954 -166.495774,-1.55135 -6.410855,-9.15276 -5.464112,-143.06885 1.057452,-149.590493 3.265428,-3.265402 41.941911,-5.138053 80.950182,-5.389492 4.87602,-0.03142 9.75697,-0.03739 14.5748,-0.01769 z"
           style="fill:#ffffff;stroke:#3e0000;stroke-width:9.00617;stroke-opacity:0"
           id="path9" /></g></g></g></svg>
